<?xml version="1.0" encoding="utf-8"?>
<!-- Generator: Adobe Illustrator 19.0.0, SVG Export Plug-In . SVG Version: 6.00 Build 0)  -->
<svg version="1.1" xmlns="http://www.w3.org/2000/svg" xmlns:xlink="http://www.w3.org/1999/xlink" x="0px" y="0px"
	 viewBox="0 0 4302.4 630" style="enable-background:new 0 0 4302.4 630;" xml:space="preserve">
<style type="text/css">
	.st0{fill:#656565;stroke:#000000;stroke-miterlimit:10;}
	.st1{fill:#656565;}
</style>
<g id="_x30_">
	<g id="XMLID_17_">
		<path id="XMLID_33_" class="st0" d="M818.7,442.2c-0.3,11.3-1.6,26.1-7.7,50c-5.5,22-15.7,54.1-35,92c0,0-14.8-83.7-22.7-111.7
			c-2.4-8.6-13.9-49-27-77c-1-2.1-7.7-16.3-16.3-34.3c-3.5-7.4-6.5-13.4-8.3-17.3L654,268.4l-630,357L1.1,560c-0.4-1.4-1-4-0.3-7.1
			c0,0,0.4-1.6,1.2-3.2c2.9-5.6,13.2-11.1,14-11.5l399.5-226.3l0,0l0.5-0.3l-0.5,0.3v-25l0.1-0.2l169-110h-0.2L504.6,49.1l86.2-48.4
			l62.9,111l67.4,1.7l45.9,81l-30,17l48.7,109.9c5.8,10.2,12.9,24.3,19.3,41.9c2.6,7.1,6.1,16.9,9,30.3
			C818.9,416.1,818.9,434.3,818.7,442.2z"/>
		<g id="XMLID_32_">
		</g>
		<g id="XMLID_31_">
		</g>
		<g id="XMLID_30_">
		</g>
		<g id="XMLID_29_">
		</g>
		<g id="XMLID_28_">
		</g>
		<g id="XMLID_27_">
		</g>
		<g id="XMLID_26_">
		</g>
		<g id="XMLID_25_">
		</g>
		<g id="XMLID_24_">
		</g>
		<g id="XMLID_23_">
		</g>
		<g id="XMLID_22_">
		</g>
		<g id="XMLID_21_">
		</g>
		<g id="XMLID_20_">
		</g>
		<g id="XMLID_19_">
		</g>
		<g id="XMLID_18_">
		</g>
	</g>
</g>
<g id="_x31_">
	<g id="XMLID_3_">
		<path id="XMLID_16_" class="st1" d="M972.7,474.9c1-21.1,1.4-133.4,1.4-145.9v-51.8c0-8.2-1.4-131.5-2.4-143h112.8
			c-1,8.6-2.4,101.3-2.4,109.9v19.2l124.8-9.1V234c0-8.2-1-89.3-1.9-99.8h111.8c-0.5,11.5-1.9,145.9-1.9,157.4v48
			c0,6.2,1,126.2,1.9,135.4H1205c0.5-16.3,1.9-94.1,1.9-103.2v-36.5l-124.8,9.1v17.3c0,21.6,1.4,102.2,1.9,113.3H972.7z"/>
		<path id="XMLID_35_" class="st1" d="M1366.7,439.4c14.4-24.5,147.4-249.6,193.9-323h4.8c57.6,86.9,186.7,289.9,206.9,317.3
			l-95,56.2l-43.2-74.4l-144.5,8.2c-3.8,6.7-21.1,44.2-31.7,66.7L1366.7,439.4z M1601.5,348.2c-13.4-27.4-31.7-61.4-40.3-81.1
			c-11.5,23-28.3,58.6-40.8,85.4L1601.5,348.2z"/>
		<path id="XMLID_38_" class="st1" d="M2061.3,478.8c-16.8,1.9-34.1,3.8-56.6,3.8c-157.4,0-215.5-80.2-215.5-144.5
			c0-79.7,72.5-176.2,238.1-211.7l21.1,92.2c-101.3,18.2-142.1,62.4-142.1,107.5c0,37,40.3,67.2,104.2,67.2
			c19.2,0,34.6-1.4,46.1-2.4L2061.3,478.8z"/>
		<path id="XMLID_40_" class="st1" d="M2369.5,486.4c-7.7-9.1-88.3-112.8-128.2-169.4v9.1c0,37,1.4,144.5,2.4,153.6h-111.8
			c0.5-13.9,1.9-95,1.9-149.8v-50.9c0-41.8-1.9-138.7-1.9-149.8h111.8c-0.5,7.7-2.4,103.2-2.4,145v13.9
			c36.5-47,119-150.2,129.1-162.2l79.7,70.1c-18.2,19.2-75.8,77.3-101.8,104.6c17.3,19.2,85.9,91.2,105.6,111.8L2369.5,486.4z"/>
		<path id="XMLID_42_" class="st1" d="M2614.7,401.5c46.6,1.4,97.4-11.5,97.4-34.1c0-9.6-8.2-15.4-47-37.4
			c-30.2-17.3-65.3-41.3-65.3-81.6c0-53.8,71.5-111.4,193-121.9l13,80.2c-60,0-90.2,9.1-90.2,28.8c0,11.5,15.4,18.7,46.6,34.1
			c25.4,12.5,66.7,34.1,66.7,77.3c0,52.8-55.2,120-201.1,136.8L2614.7,401.5z"/>
		<path id="XMLID_44_" class="st1" d="M3364.5,172.5c-8.6,16.8-131,281.3-149.3,314.9h-4.8c-26.4-34.1-88.3-122.4-106.6-147.8
			c-30.2,42.7-88.8,128.6-110.9,159.4h-4.8c-18.7-36-115.7-277.4-138.7-332.2l101.8-37.4c16.3,55.2,52.8,171.8,60.5,193
			c7.7-13.9,48.5-77.8,92.2-150.7h4.8c42.2,65.3,78.7,114.7,97.4,142.1c10.1-25.9,50.4-152.2,60.5-179.5L3364.5,172.5z"/>
		<path id="XMLID_59_" class="st1" d="M3530.6,329c0,104.6-47,160.8-123.8,201.6l-51.4-83c27.8-15.4,67.2-36.5,67.2-119.5v-74.9
			c0-8.2-1.4-107.5-2.4-119H3533c-1,8.6-2.4,62.4-2.4,120V329z"/>
		<path id="XMLID_61_" class="st1" d="M3681.8,474.9c1-12.5,1.4-80.6,1.4-133V216.2c-23,0-91.2,2.4-106.1,2.9v-84
			c21.6,1.9,135.4,3.8,140.6,3.8h41.8c9.1,0,113.8-1.9,137.3-3.8v84c-9.1-0.5-97.9-2.9-105.6-2.9v133.4c0,49.4,0.5,115.7,1.4,125.3
			H3681.8z"/>
		<path id="XMLID_63_" class="st1" d="M4039.8,252.7c0,76.8,3.8,111.4,22.1,133c11,13,25.9,17.3,40.8,17.3
			c16.8,0,32.2-6.7,42.7-22.6c13-19.7,13.9-39.8,13.9-148.8v-18.2c0-33.1-1.9-66.2-2.4-84h109.9c0,10.6,0.5,47,0.5,85v22.1
			c0,92.2-5.3,148.8-41.8,192.5c-29.3,35.5-75.8,53.8-129.1,53.8c-39.4,0-97.9-6.7-134.4-60c-23.5-35-31.7-70.6-31.7-187.2v-25.9
			c0-22.1,0.5-61.9,0.5-73h111.8c-1.9,12.5-2.9,39.8-2.9,83.5V252.7z"/>
	</g>
	<g id="XMLID_15_">
	</g>
	<g id="XMLID_65_">
	</g>
	<g id="XMLID_66_">
	</g>
	<g id="XMLID_67_">
	</g>
	<g id="XMLID_68_">
	</g>
	<g id="XMLID_69_">
	</g>
	<g id="XMLID_70_">
	</g>
	<g id="XMLID_71_">
	</g>
	<g id="XMLID_72_">
	</g>
	<g id="XMLID_73_">
	</g>
	<g id="XMLID_74_">
	</g>
	<g id="XMLID_75_">
	</g>
	<g id="XMLID_76_">
	</g>
	<g id="XMLID_77_">
	</g>
	<g id="XMLID_78_">
	</g>
</g>
</svg>
